External Loads File
version=1
nRows=93
nColumns=13
Range=5.000000e-03-10 seconds
endheader
time 	forceRightX 	forceRightY 	forceRightZ 	pointRightX 	pointRightY 	pointRightZ 	forceLeftX 	forceLeftY 	forceLeftZ 	pointLeftX 	pointLeftY 	pointLeftZ 		
2.505000 -119.063986 554.385879 -0.000000 0.311312 0.485727 -0.146783 106.072897 -67.199120 -0.000000 0.195578 0.174012 -0.376635
2.510000 -126.757622 596.062417 -0.000000 0.316665 0.481165 -0.146633 103.650505 -74.376965 -0.000000 0.188486 0.177800 -0.376292
2.515000 -134.927140 634.297656 -0.000000 0.322060 0.476308 -0.146584 101.422378 -78.953988 -0.000000 0.181444 0.181949 -0.375951
2.520000 -142.856691 668.440802 -0.000000 0.327693 0.471201 -0.146836 99.186288 -82.098676 -0.000000 0.174427 0.186492 -0.375650
2.525000 -151.214372 697.840457 -0.000000 0.333195 0.465694 -0.147025 96.887727 -84.470205 -0.000000 0.167664 0.191433 -0.375277
2.530000 -159.420326 722.427427 -0.000000 0.338662 0.459814 -0.147240 94.321633 -86.663153 -0.000000 0.161060 0.196781 -0.375004
2.535000 -168.495344 742.093646 -0.000000 0.343917 0.453673 -0.147393 91.508979 -88.846814 -0.000000 0.154800 0.202268 -0.374633
2.540000 -177.450003 757.457314 -0.000000 0.349160 0.447327 -0.147787 88.274111 -91.301060 -0.000000 0.148759 0.208139 -0.374247
2.545000 -186.393864 769.126908 -0.000000 0.354283 0.440614 -0.147628 84.593949 -94.077474 -0.000000 0.143004 0.214274 -0.373922
2.550000 -195.429674 777.828919 -0.000000 0.359228 0.433671 -0.147568 80.456692 -97.176553 -0.000000 0.137590 0.220703 -0.373800
2.555000 -203.304267 784.624292 -0.000000 0.364072 0.426473 -0.147546 75.714337 -100.668381 -0.000000 0.132559 0.227810 -0.373604
2.560000 -210.868720 789.974880 -0.000000 0.368729 0.418994 -0.147460 70.514558 -104.360656 -0.000000 0.127674 0.234795 -0.373626
2.565000 -218.425366 794.394795 -0.000000 0.372832 0.411330 -0.146848 64.955689 -108.124447 -0.000000 0.123239 0.241973 -0.373266
2.570000 -224.239668 798.892550 -0.000000 0.377121 0.403406 -0.147036 58.864315 -111.991173 -0.000000 0.119367 0.249432 -0.373661
2.575000 -229.133783 803.674218 -0.000000 0.380968 0.395450 -0.146834 52.407358 -115.774150 -0.000000 0.115779 0.257120 -0.373717
2.580000 -232.443345 809.194177 -0.000000 0.384228 0.387184 -0.146062 45.534646 -119.402630 -0.000000 0.112619 0.265021 -0.373707
2.585000 -233.278047 815.789805 -0.000000 0.387574 0.378767 -0.145811 38.166767 -122.777928 -0.000000 0.109943 0.273194 -0.373756
2.590000 -231.927860 823.269143 -0.000000 0.390566 0.370153 -0.145654 30.427484 -125.697621 -0.000000 0.107608 0.281517 -0.373757
2.595000 -228.441948 831.350093 -0.000000 0.393292 0.361497 -0.145607 22.438588 -127.945260 -0.000000 0.105765 0.290056 -0.373779
2.600000 -222.438937 839.777846 -0.000000 0.395693 0.352663 -0.145555 14.320186 -129.269586 -0.000000 0.104350 0.298761 -0.373745
2.605000 -215.247933 847.841268 -0.000000 0.397741 0.343923 -0.145542 6.548060 -129.352752 -0.000000 0.103381 0.307450 -0.373796
2.610000 -206.061517 855.477538 -0.000000 0.399383 0.335040 -0.145494 -0.635201 -127.906783 -0.000000 0.102953 0.316236 -0.373904
2.615000 -195.393423 862.407218 -0.000000 0.400596 0.326162 -0.145318 -6.667388 -124.646107 -0.000000 0.102901 0.325148 -0.373835
2.620000 -184.100314 868.451914 -0.000000 0.401970 0.317270 -0.145747 -10.856081 -119.382799 -0.000000 0.103347 0.334015 -0.373826
2.625000 -171.988908 873.825283 -0.000000 0.402265 0.308342 -0.145451 -12.673035 -112.076126 -0.000000 0.104198 0.342908 -0.373819
2.630000 -159.081800 878.772574 -0.000000 0.402514 0.299554 -0.145026 -11.651479 -102.920321 -0.000000 0.105721 0.352085 -0.373990
2.635000 -146.878299 883.306279 -0.000000 0.401953 0.290725 -0.145042 -7.428940 -92.448776 -0.000000 0.107591 0.360807 -0.374049
2.640000 -134.142919 887.910210 -0.000000 0.401134 0.282014 -0.145149 -0.525896 -81.528807 -0.000000 0.109738 0.369791 -0.374149
2.645000 -122.971817 892.503188 -0.000000 0.399917 0.273401 -0.145145 8.125771 -71.310962 -0.000000 0.112432 0.378155 -0.374275
2.650000 -110.980715 897.643613 -0.000000 0.398082 0.264934 -0.145034 16.729324 -62.836781 -0.000000 0.115544 0.386680 -0.374322
2.655000 -98.643232 903.372730 -0.000000 0.395839 0.256502 -0.145182 23.944990 -56.613775 -0.000000 0.119070 0.395105 -0.374517
2.660000 -86.434711 909.602989 -0.000000 0.393293 0.248297 -0.145093 29.042276 -52.552579 -0.000000 0.122897 0.403481 -0.374783
2.665000 -73.508979 916.180671 -0.000000 0.390269 0.240233 -0.145042 31.809826 -50.289322 -0.000000 0.127416 0.411644 -0.374720
2.670000 -60.834434 922.623105 -0.000000 0.386919 0.232360 -0.144878 32.518942 -49.320636 -0.000000 0.131860 0.419760 -0.375359
2.675000 -47.563549 928.514993 -0.000000 0.383100 0.224690 -0.144764 31.532737 -49.258493 -0.000000 0.137039 0.427489 -0.374873
2.680000 -35.281783 933.286458 -0.000000 0.378984 0.217280 -0.144912 29.379146 -49.751796 -0.000000 0.141985 0.435052 -0.374931
2.685000 -22.880547 936.533452 -0.000000 0.374530 0.210194 -0.144648 26.361952 -50.667610 -0.000000 0.147348 0.442410 -0.374362
2.690000 -6.470385 937.823491 -0.000000 0.369640 0.203320 -0.144500 22.518556 -52.058135 -0.000000 0.154403 0.449835 -0.374503
2.695000 6.243068 936.572215 -0.000000 0.364450 0.196918 -0.144409 18.402629 -53.798309 -0.000000 0.160500 0.456639 -0.374593
2.700000 19.446708 932.425240 -0.000000 0.358950 0.190869 -0.144343 13.774417 -56.140593 -0.000000 0.166864 0.463522 -0.374660
2.705000 31.448056 925.070465 -0.000000 0.353184 0.185280 -0.144356 8.600240 -59.216152 -0.000000 0.173542 0.469422 -0.375020
2.710000 42.775575 914.285151 -0.000000 0.347129 0.179860 -0.144297 2.640918 -63.155952 -0.000000 0.180020 0.475036 -0.375085
2.715000 53.955016 899.867886 -0.000000 0.340810 0.174960 -0.144263 -4.380084 -67.913300 -0.000000 0.186633 0.480476 -0.375444
2.720000 66.931695 881.432941 -0.000000 0.334239 0.170499 -0.144233 -12.790967 -73.142603 -0.000000 0.194289 0.485349 -0.375664
2.725000 78.129674 858.873786 -0.000000 0.327567 0.166401 -0.144213 -22.237285 -78.250072 -0.000000 0.201392 0.489915 -0.375774
2.730000 90.273260 831.541577 -0.000000 0.320625 0.162676 -0.144032 -32.522647 -82.262850 -0.000000 0.208915 0.494155 -0.375847
2.735000 102.258831 799.030557 -0.000000 0.313440 0.159532 -0.143663 -42.859506 -84.152760 -0.000000 0.216498 0.497938 -0.375838
2.740000 114.011378 760.859277 -0.000000 0.306032 0.156820 -0.143170 -52.534098 -83.066828 -0.000000 0.224142 0.500936 -0.375893
2.745000 125.115475 716.693152 -0.000000 0.298712 0.154617 -0.143155 -60.979522 -78.503518 -0.000000 0.231880 0.503776 -0.375946
2.750000 135.551381 666.353647 -0.000000 0.291375 0.152832 -0.143096 -67.875236 -70.245410 -0.000000 0.239756 0.506178 -0.376214
2.755000 144.438749 610.126721 -0.000000 0.283966 0.151764 -0.143096 -72.976260 -58.454590 -0.000000 0.247478 0.507891 -0.376190
2.760000 151.891596 548.411455 -0.000000 0.276519 0.151228 -0.143040 -76.297165 -43.449830 -0.000000 0.255258 0.508920 -0.376397
2.765000 157.402535 482.051741 -0.000000 0.269061 0.151148 -0.143070 -77.946520 -25.770323 -0.000000 0.263032 0.509577 -0.376882
2.770000 160.094428 412.408327 -0.000000 0.261590 0.151655 -0.143143 -78.203501 -6.070644 -0.000000 0.270348 0.509518 -0.377161
2.775000 160.228851 340.849823 -0.000000 0.254130 0.152744 -0.143206 -77.588499 15.223524 -0.000000 0.277472 0.509046 -0.377493
2.780000 157.778958 269.140288 -0.000000 0.246629 0.154388 -0.143389 -76.776846 37.777591 -0.000000 0.284288 0.508015 -0.377929
2.785000 153.113455 199.072882 -0.000000 0.239129 0.156541 -0.143569 -76.598431 61.675769 -0.000000 0.290901 0.505536 -0.378386
2.790000 146.574666 132.543042 -0.000000 0.231550 0.159310 -0.143859 -77.983852 87.547495 -0.000000 0.297360 0.502898 -0.378795
2.795000 138.641161 71.349119 -0.000000 0.223931 0.162431 -0.144112 -81.821185 116.590324 -0.000000 0.303601 0.499629 -0.379400
2.800000 129.909949 16.876388 -0.000000 0.216218 0.166091 -0.144366 -88.538661 150.406438 -0.000000 0.309932 0.495663 -0.380042
2.805000 120.827740 -29.407744 -0.000000 0.208519 0.170014 -0.144669 -98.430839 190.135266 -0.000000 0.315987 0.491200 -0.380787
2.810000 111.924717 -66.775547 -0.000000 0.200969 0.174436 -0.144713 -110.748831 236.194102 -0.000000 0.322203 0.486097 -0.381308
2.815000 103.653770 -94.730825 -0.000000 0.193450 0.179291 -0.144957 -124.304388 287.310963 -0.000000 0.328382 0.480379 -0.381743
2.820000 96.601648 -113.123446 -0.000000 0.186161 0.184493 -0.145144 -137.979948 340.793054 -0.000000 0.334271 0.474200 -0.382250
2.825000 91.066220 -122.536200 -0.000000 0.179013 0.190033 -0.145206 -149.869256 394.140381 -0.000000 0.340628 0.468233 -0.382324
2.830000 87.539152 -123.756532 -0.000000 0.172172 0.195911 -0.145337 -158.907773 445.143322 -0.000000 0.346604 0.461437 -0.382517
2.835000 86.282193 -118.055807 -0.000000 0.165696 0.202232 -0.145362 -163.643560 492.272628 -0.000000 0.352505 0.454470 -0.382436
2.840000 87.378280 -106.957612 -0.000000 0.159542 0.208848 -0.145496 -162.595959 534.258219 -0.000000 0.358139 0.447093 -0.382241
2.845000 90.658232 -92.124589 -0.000000 0.153667 0.215859 -0.145674 -154.399490 570.156210 -0.000000 0.363485 0.439371 -0.381992
2.850000 95.682468 -75.265423 -0.000000 0.148238 0.223282 -0.145681 -137.818810 599.564715 -0.000000 0.369206 0.431368 -0.382096
2.855000 102.115713 -57.576728 -0.000000 0.143193 0.230936 -0.145675 -114.601835 622.019245 -0.000000 0.374294 0.423079 -0.382049
2.860000 109.184539 -40.363431 -0.000000 0.138714 0.238911 -0.145718 -84.864980 638.013983 -0.000000 0.379335 0.414491 -0.381785
2.865000 116.238813 -24.458871 -0.000000 0.134684 0.247084 -0.145643 -50.273455 648.051628 -0.000000 0.383782 0.405589 -0.381966
2.870000 122.608819 -10.598956 -0.000000 0.131255 0.255527 -0.145812 -11.703735 652.880945 -0.000000 0.387975 0.396528 -0.381862
2.875000 127.744743 0.728243 -0.000000 0.128379 0.264123 -0.145846 29.794115 653.192839 -0.000000 0.391782 0.387284 -0.381656
2.880000 131.259374 9.080812 -0.000000 0.125963 0.273053 -0.145924 73.959842 649.529724 -0.000000 0.395159 0.377886 -0.381790
2.885000 132.956308 14.288228 -0.000000 0.123962 0.282127 -0.145800 119.924886 642.261864 -0.000000 0.398193 0.368361 -0.381882
2.890000 132.777476 16.258186 -0.000000 0.122539 0.291460 -0.145917 166.986185 631.608657 -0.000000 0.400841 0.358807 -0.381830
2.895000 130.730033 15.012517 -0.000000 0.121564 0.300877 -0.146066 214.336570 617.689466 -0.000000 0.402961 0.349110 -0.381985
2.900000 126.836296 10.667175 -0.000000 0.121025 0.310608 -0.146134 261.150090 600.501490 -0.000000 0.404769 0.339427 -0.381872
2.905000 121.112854 3.620691 -0.000000 0.120896 0.320487 -0.146262 305.596096 580.382746 -0.000000 0.406123 0.329693 -0.381772
2.910000 113.630039 -5.573889 -0.000000 0.121248 0.330404 -0.146390 345.266898 558.157139 -0.000000 0.407046 0.319945 -0.381601
2.915000 104.545957 -16.344517 -0.000000 0.122032 0.340395 -0.146574 377.697032 535.008019 -0.000000 0.407364 0.310125 -0.381493
2.920000 94.138632 -27.941241 -0.000000 0.123271 0.350421 -0.146697 399.536652 513.221614 -0.000000 0.407133 0.300330 -0.382720
2.925000 82.768225 -39.728184 -0.000000 0.125333 0.360594 -0.146437 408.037285 495.504646 -0.000000 0.406003 0.290555 -0.381896
2.930000 70.993534 -50.835635 -0.000000 0.126786 0.370684 -0.147072 399.024506 486.947464 -0.000000 0.404681 0.280863 -0.381621
2.935000 59.215752 -60.869823 -0.000000 0.129166 0.380527 -0.147399 371.379341 491.581311 -0.000000 0.402253 0.271305 -0.382176
2.940000 47.824753 -69.408989 -0.000000 0.131950 0.390417 -0.147581 325.033537 513.894538 -0.000000 0.399712 0.261870 -0.381999
2.945000 37.146102 -76.149974 -0.000000 0.135336 0.399961 -0.147703 262.618587 556.780685 -0.000000 0.396657 0.252633 -0.381831
2.950000 27.352124 -80.936687 -0.000000 0.138963 0.409522 -0.147829 190.812805 619.215077 -0.000000 0.393436 0.243589 -0.380957
2.955000 18.438302 -83.717332 -0.000000 0.143249 0.418654 -0.147834 120.374790 694.742936 -0.000000 0.389188 0.234723 -0.380928
2.960000 10.565286 -84.477593 -0.000000 0.147725 0.427641 -0.148021 60.545006 773.089085 -0.000000 0.384499 0.226362 -0.380846
2.965000 3.680290 -83.382023 -0.000000 0.152637 0.436269 -0.148306 18.124117 843.484566 -0.000000 0.379311 0.218299 -0.380776
